<svg width="164" height="39" viewBox="0 0 164 39" fill="none" xmlns="http://www.w3.org/2000/svg">
<g clip-path="url(#clip0_94_1623)">
<path fill-rule="evenodd" clip-rule="evenodd" d="M6.60461 21.6559C6.8273 18.7658 9.15728 15.6527 13.2106 15.6527C17.65 15.6527 19.7606 18.487 19.8704 21.6559H6.60461ZM13.1546 10.2612C6.32758 10.2612 0 15.9305 0 24.4918C0 33.6627 6.49417 38.9992 13.8203 38.9992C20.3145 38.9992 24.5882 35.1636 26.0321 30.4396L20.5916 28.7151C19.7035 31.3841 17.7061 33.441 13.8203 33.441C9.82373 33.441 6.60469 30.4948 6.4381 26.3816H26.1977C26.2524 26.2706 26.3644 25.3799 26.3644 24.325C26.3644 15.7636 21.48 10.2612 13.1546 10.2612Z" fill="white"/>
<path fill-rule="evenodd" clip-rule="evenodd" d="M44.8998 26.9361C44.8998 32.2174 41.7927 33.9417 38.1833 33.9417C35.6307 33.9417 34.2425 32.2736 34.2425 30.4397C34.2425 28.2142 35.8533 27.1032 37.8509 26.7692L44.8998 25.714V26.9361ZM51.2284 20.3773C51.2284 14.9849 48.0641 10.2612 39.7388 10.2612C33.0783 10.2612 28.8604 14.4305 28.3593 19.0994L34.2425 20.4331C34.5213 17.7093 36.4069 15.5416 39.7939 15.5416C43.3448 15.5416 44.8999 17.3755 44.8999 19.6548C44.8999 20.599 44.4545 21.3787 42.9021 21.6008L35.9638 22.6559C31.357 23.3236 27.8047 25.9914 27.8047 30.8284C27.8047 35.1081 31.3023 38.9992 36.9627 38.9992C41.3473 38.9992 44.0118 36.7765 45.2889 34.7202C45.2889 36.8865 45.5104 37.9975 45.5666 38.1657H51.5607C51.5056 37.8879 51.2284 36.275 51.2284 33.8296V20.3773Z" fill="white"/>
<path fill-rule="evenodd" clip-rule="evenodd" d="M61.1962 15.4533V11.1205H54.9688V38.1701H61.3619V25.2847C61.3619 20.2281 63.6206 17.3411 68.5808 17.3411C69.2428 17.3411 69.9587 17.3963 70.6744 17.5082V10.9548C70.3989 10.899 69.737 10.7871 68.9663 10.7871C65.4402 10.7871 62.4634 12.5083 61.1962 15.4533Z" fill="white"/>
<path fill-rule="evenodd" clip-rule="evenodd" d="M87.3833 10.3726C84.3942 10.3726 81.1827 11.6484 79.4111 14.7559V11.1488H73.1543V38.1704H79.5772V22.5794C79.5772 19.0284 81.514 16.198 85.1684 16.198C89.2081 16.198 90.7047 18.8602 90.7047 22.1903V38.1704H97.1261V21.0809C97.1261 15.1437 93.9708 10.3726 87.3833 10.3726Z" fill="white"/>
<path fill-rule="evenodd" clip-rule="evenodd" d="M105.95 21.6559C106.171 18.7658 108.502 15.6527 112.553 15.6527C116.994 15.6527 119.103 18.487 119.215 21.6559H105.95ZM112.499 10.2612C105.67 10.2612 99.3438 15.9305 99.3438 24.4918C99.3438 33.6627 105.838 38.9992 113.166 38.9992C119.66 38.9992 123.932 35.1636 125.375 30.4396L119.935 28.7151C119.049 31.3841 117.05 33.441 113.166 33.441C109.169 33.441 105.95 30.4948 105.783 26.3816H125.542C125.597 26.2706 125.708 25.3799 125.708 24.325C125.708 15.7636 120.825 10.2612 112.499 10.2612Z" fill="white"/>
<path fill-rule="evenodd" clip-rule="evenodd" d="M163.256 19.3701V13.6704H157.579V9.68492L157.575 9.68192C157.574 4.33507 153.216 0 147.838 0C142.46 0 138.098 4.33574 138.098 9.68492C138.098 9.92928 138.12 10.1677 138.138 10.4067C137.948 10.4 137.767 10.3841 137.571 10.3841C131.95 10.3841 127.609 14.3682 127.609 19.0745C127.609 22.782 130.113 25.8803 134.899 26.9333L138.907 27.8189C141.076 28.2607 142.078 29.3681 142.078 30.8069C142.078 32.468 140.688 33.9079 138.017 33.9079C134.564 33.9079 132.73 31.7494 132.505 29.3135L126.885 30.8639C127.219 33.9079 130.225 39 138.071 39C144.972 39 148.311 34.4605 148.311 30.3645C148.311 26.38 145.641 23.2817 140.519 22.1748L136.402 21.3438C134.732 21.0105 133.675 19.9591 133.675 18.5198C133.675 16.8589 135.29 15.4213 137.571 15.4213C139.073 15.4213 140.149 15.8544 140.914 16.4686C140.947 16.501 141.009 16.5419 141.009 16.5419V16.5406L144.189 13.473C143.593 12.9046 143.124 12.2036 142.845 11.4112C142.656 10.8711 142.551 10.2908 142.551 9.68492C142.551 6.78177 144.917 4.42795 147.838 4.42795C150.759 4.42795 153.125 6.78177 153.125 9.68492C153.125 11.2793 152.408 12.7053 151.282 13.6704C150.441 14.3898 149.366 14.8443 148.188 14.9215V19.3701H151.179V30.4767C151.179 35.5129 154.296 38.5022 159.307 38.5022C161.642 38.5022 162.865 38.0584 163.256 37.8933V32.5788C162.979 32.6354 161.919 32.8005 161.03 32.8005C158.638 32.8005 157.579 31.8031 157.579 29.4243V19.3701H163.256Z" fill="white"/>
</g>
<defs>
<clipPath id="clip0_94_1623">
<rect width="163.256" height="39" fill="white"/>
</clipPath>
</defs>
</svg>
