<svg width="225" height="36" viewBox="0 0 225 36" fill="none" xmlns="http://www.w3.org/2000/svg">
<g clip-path="url(#clip0_94_1619)">
<path d="M86.7904 19.305L83.8024 19.0305C81.8434 18.8595 81.0544 18.1725 81.0544 16.9695C81.0544 15.561 82.2559 14.634 84.5914 14.634C86.7904 14.634 87.8899 15.594 88.0609 17.1405H95.0689C94.6219 12.573 91.3939 9.3435 84.7984 9.3435C77.9284 9.3435 74.1484 12.8475 74.1484 17.484C74.1484 21.813 76.5184 24.183 82.3939 24.6645L85.3489 24.9045C87.6484 25.077 88.4734 25.866 88.4734 27.24C88.4734 28.683 87.2719 29.748 84.7984 29.748C82.4959 29.748 81.1234 28.7175 80.8834 26.898H73.4959C74.1484 31.878 77.6524 35.175 84.7639 35.175C91.6684 35.175 95.4814 31.638 95.4814 26.862C95.4814 22.2255 92.9389 19.8555 86.7904 19.305ZM62.6074 9.3435C58.2109 9.3435 55.5994 11.6445 54.3634 16.3515H53.9164V9.756H46.9774V34.764H54.3634V20.199C54.3634 16.866 56.0809 15.0465 59.1724 15.0465C62.2294 15.0465 63.7414 16.9365 63.7414 20.1645V34.764H71.1259V18.8595C71.1259 12.813 67.9669 9.3435 62.6074 9.3435ZM39.7984 0C37.2904 0 35.4004 1.65 35.4004 4.1565C35.4004 6.6645 37.2559 8.313 39.7639 8.313C42.2719 8.313 44.1259 6.663 44.1259 4.1565C44.1259 1.683 42.2719 0 39.7984 0ZM43.4734 9.756H36.0874V34.764H43.4734V9.756ZM107.091 4.4655H102.386C102.248 8.4855 100.53 10.236 96.6829 10.545V15.63H99.7069V26.622C99.7069 32.1525 102.866 35.175 109.152 35.175C110.334 35.175 111.512 35.025 112.656 34.7295V28.785C112.067 28.8829 111.469 28.9286 110.871 28.9215C108.225 28.9215 107.091 27.9255 107.091 25.143V15.63H113.585V9.756H107.091V4.4655ZM224.229 15.63V9.756H217.737V4.4655H213.099C212.996 7.248 212.172 8.862 210.351 9.756V26.622C210.351 32.1525 213.512 35.175 219.798 35.175C220.98 35.175 222.158 35.025 223.302 34.7295V28.785C222.712 28.883 222.114 28.9286 221.516 28.9215C218.87 28.9215 217.737 27.9255 217.737 25.143V15.63H224.229ZM200.046 16.7295H199.599V9.7545H192.764V34.764H200.15V21.2295C200.15 17.484 201.833 15.9045 205.68 15.9045C206.333 15.9045 207.054 15.9735 208.05 16.1445V9.687C207.377 9.45079 206.668 9.33452 205.955 9.3435C202.965 9.3435 200.904 11.061 200.046 16.7295ZM152.882 28.8555C149.412 28.8555 146.904 26.553 146.904 22.0875C146.904 18.1035 149.24 15.63 152.813 15.63C155.87 15.63 157.622 17.3475 158.138 20.0955H165.626C164.904 13.671 160.302 9.3435 152.916 9.3435C144.809 9.3435 139.485 14.8395 139.485 22.3635C139.485 30.1605 144.603 35.175 152.813 35.175C160.268 35.175 165.111 31.02 165.798 24.285H158.309C157.898 27.0345 156.008 28.8555 152.882 28.8555ZM126.398 9.3435C119.973 9.3435 116.093 12.504 115.404 18.171H122.481C122.721 16.2135 123.993 15.183 126.225 15.183C128.492 15.183 129.522 16.2135 129.522 17.691C129.522 18.927 128.733 19.581 126.707 19.9575L123.339 20.577C117.398 21.675 115.13 24.114 115.13 27.996C115.13 32.427 118.256 35.211 122.585 35.211C126.122 35.211 128.424 33.561 129.489 29.439H129.935V34.764H136.91V18.447C136.91 12.7785 133.508 9.3435 126.398 9.3435ZM125.573 30.1605C123.581 30.1605 122.447 29.0955 122.447 27.5145C122.447 26.2095 123.237 25.317 125.195 24.87L126.569 24.561C127.754 24.2865 128.673 23.9205 129.524 23.1855V25.8315C129.524 28.8885 127.908 30.1605 125.573 30.1605ZM178.886 9.3435C172.461 9.3435 168.581 12.504 167.894 18.171H174.969C175.211 16.2135 176.481 15.183 178.713 15.183C180.981 15.183 182.012 16.2135 182.012 17.691C182.012 18.927 181.221 19.581 179.195 19.9575L175.829 20.577C169.886 21.675 167.618 24.114 167.618 27.996C167.618 32.427 170.744 35.211 175.073 35.211C178.611 35.211 180.912 33.561 181.977 29.439H182.424V34.764H189.398V18.447C189.398 12.7785 185.996 9.3435 178.886 9.3435ZM178.061 30.1605C176.069 30.1605 174.935 29.0955 174.935 27.5145C174.935 26.2095 175.725 25.317 177.683 24.87L179.057 24.561C180.242 24.2865 181.163 23.9205 182.012 23.1855V25.8315C182.012 28.8885 180.398 30.1605 178.061 30.1605Z" fill="white"/>
<path d="M23.655 5.9836C22.137 5.9836 21.054 6.6451 20.055 8.0821L17.175 12.2176V0.412598H10.305V12.2176L7.42503 8.0821C6.42753 6.6451 5.34453 5.9836 3.82503 5.9836C1.53303 5.9836 0.00753185 7.6756 3.18546e-05 9.7606C-0.00596815 11.5456 0.835532 12.7096 2.61003 13.8526L13.74 21.0226L24.87 13.8526C26.6445 12.7096 27.486 11.5456 27.48 9.7606C27.474 7.6756 25.947 5.9836 23.655 5.9836Z" fill="white"/>
<path d="M13.7393 22.7402C20.3543 22.7402 25.7768 27.6782 25.7618 34.7642H1.71682C1.70332 27.6812 7.12432 22.7402 13.7393 22.7402Z" fill="white"/>
</g>
<defs>
<clipPath id="clip0_94_1619">
<rect width="225" height="36" fill="white"/>
</clipPath>
</defs>
</svg>
