<svg width="113" height="32" viewBox="0 0 113 32" fill="none" xmlns="http://www.w3.org/2000/svg">
<path d="M31.9962 7.73653C31.8735 11.6168 28.8036 14.753 24.9526 14.9774C24.6457 15.0046 24.3338 15.0239 24.0168 15.0434C21.9664 15.17 19.7024 15.3098 17.2 17.7028C15.6017 19.2312 15.2883 22.1152 15.0615 24.2019C15.024 24.5462 14.989 24.8688 14.9509 25.16C14.6193 28.9927 11.4053 32 7.48955 32L7.47463 32L7.45597 32C3.42314 32 0.138276 28.7976 0.0055874 24.7971C0.00187378 24.7001 0 24.6027 0 24.5049C0 23.9874 0.0523936 23.4823 0.152161 22.9943C0.821846 19.7192 3.62606 17.2223 7.04668 17.0226C7.35367 16.9954 7.66574 16.9761 7.98285 16.9565L7.98326 16.9565C10.0336 16.8299 12.2977 16.6901 14.8001 14.2971C16.3983 12.7688 16.7118 9.88487 16.9386 7.79809C16.976 7.45451 17.0109 7.13255 17.0489 6.84179C17.3524 3.32459 20.0832 0.502062 23.5565 0.060218C23.8689 0.0204815 24.1873 0 24.5104 0L24.5287 2.17408e-05L24.5469 0C28.6639 0 32.0014 3.33751 32.0014 7.45455C32.0014 7.54896 31.9997 7.64297 31.9962 7.73653Z" fill="white"/>
<path d="M48.7287 30.9091V7.63636H40.3651V1.45455H64.0014V7.63636H55.6378V30.9091H48.7287Z" fill="white"/>
<path fill-rule="evenodd" clip-rule="evenodd" d="M81.3737 24.1841C80.466 28.7639 76.6289 31.6364 71.1827 31.6364C64.87 31.6364 60.0014 27.4436 60.0014 20.512C60.0014 13.5805 64.87 9.45455 71.1002 9.45455C78.0317 9.45455 81.456 14.4469 81.456 20.182V22.0386H66.6442C66.8352 25.0196 68.4596 26.7009 71.1827 26.7009C73.1631 26.7009 74.4834 25.7932 75.0198 24.1841H81.3737ZM71.1002 14.4389C68.7071 14.4389 67.0635 15.7554 66.7679 18.3665H75.0611C75.1802 16.224 73.7408 14.4389 71.1002 14.4389Z" fill="white"/>
<path d="M91.6378 26.1818L102.183 14.5455V9.81818H83.6378V14.9144H93.8196L83.2741 26.5455V31.2727H102.547V26.1818H91.6378Z" fill="white"/>
<path d="M105.456 31.2727V9.81818H112.365V31.2727H105.456Z" fill="white"/>
<path d="M14.9091 7.45455C14.9091 11.5716 11.5716 14.9091 7.45455 14.9091C3.33751 14.9091 0 11.5716 0 7.45455C0 3.33751 3.33751 0 7.45455 0C11.5716 0 14.9091 3.33751 14.9091 7.45455Z" fill="white"/>
<path d="M32.0014 24.5455C32.0014 28.6625 28.6639 32 24.5469 32C20.4298 32 17.0923 28.6625 17.0923 24.5455C17.0923 20.4284 20.4298 17.0909 24.5469 17.0909C28.6639 17.0909 32.0014 20.4284 32.0014 24.5455Z" fill="white"/>
<path d="M108.911 7.63636C111.019 7.63636 112.729 5.92691 112.729 3.81819C112.729 1.70946 111.019 0 108.911 0C106.802 0 105.092 1.70946 105.092 3.81819C105.092 5.92691 106.802 7.63636 108.911 7.63636Z" fill="white"/>
</svg>
