<svg width="255" height="36" viewBox="0 0 255 36" fill="none" xmlns="http://www.w3.org/2000/svg">
<g clip-path="url(#clip0_94_1632)">
<path fill-rule="evenodd" clip-rule="evenodd" d="M188.422 29.2056C186.136 29.2056 185.019 27.7835 185.022 26.311C185.022 24.3839 186.456 23.4195 188.264 23.1671L194.423 22.2874V23.4033C194.421 27.8177 191.398 29.2056 188.422 29.2056ZM189.66 9.07493C196.736 9.07493 201.238 12.5886 201.238 19.4921V33.5224H194.729L194.755 30.7499C193.452 32.7079 190.655 34.2098 187.193 34.2081C181.614 34.2065 178.216 30.6016 178.218 26.6954C178.218 22.2304 181.673 19.7446 186.03 19.137C186.03 19.137 193.186 18.29 194.203 18.1515C194.203 15.2047 191.455 14.5368 188.717 14.5368C185.911 14.5368 183.681 15.5158 181.956 16.6708L179.404 12.2286C182.08 10.3357 185.597 9.07493 189.66 9.07493ZM38.476 12.3166C40.2516 9.9562 42.9003 9.12054 45.6272 9.12054C51.2878 9.12054 55.326 12.8802 55.326 18.4089V33.568H48.6114V20.4711C48.6114 17.034 46.8114 15.1412 43.749 15.1412C40.8673 15.1412 38.476 16.933 38.476 20.5216V33.5696H31.7598V0H38.476V12.3166ZM127.352 18.4072V33.5663H120.664V20.4695C120.664 17.0324 118.837 15.1395 115.801 15.1395C112.919 15.1395 110.527 16.9314 110.527 20.52V33.568H103.814V20.4711C103.814 17.0308 102.014 15.1395 98.9511 15.1395C96.0711 15.1395 93.6782 16.9314 93.6782 20.52V33.568H86.9636V9.7591H93.4974V12.5593C95.2729 10.0295 97.9998 9.11891 100.831 9.11891C104.431 9.11891 107.391 10.6664 109.062 13.1978C110.992 10.1761 114.258 9.11891 117.526 9.11891C123.39 9.11891 127.352 12.8786 127.352 18.4072ZM157.423 21.6489C157.423 28.8 152.225 34.1805 145.355 34.1805C141.908 34.1805 139.515 32.8545 137.895 30.9388V33.5663H131.335V0.0244344H138.023V12.2416C139.644 10.3748 141.985 9.12054 145.329 9.12054C152.225 9.12054 157.421 14.5026 157.421 21.6521L157.423 21.6489ZM137.83 21.6489C137.83 25.4101 140.429 28.2103 144.236 28.2103C148.198 28.2103 150.667 25.2863 150.667 21.6505C150.667 18.013 148.198 15.0907 144.236 15.0907C140.429 15.0907 137.83 17.8925 137.83 21.6505V21.6489ZM226.958 13.6165L222.12 17.4738C220.605 15.9263 218.983 15.0907 216.797 15.0907C213.324 15.0907 210.545 17.6954 210.545 21.6505C210.545 25.63 213.298 28.2103 216.77 28.2103C218.93 28.2103 220.784 27.2769 222.198 25.8027L226.984 29.709C224.643 32.5841 221.143 34.1805 216.977 34.1805C209.026 34.1805 203.701 28.8733 203.701 21.6505C203.701 14.4505 209.026 9.11891 216.977 9.11891C221.143 9.11891 224.666 10.7414 226.958 13.6148V13.6165ZM252.741 9.7591L243.71 18.6581L254.118 33.568H245.948L239.003 22.7891L235.966 25.7864V33.568H229.252V0.0244344H235.966V18.6109L244.662 9.76072H252.743L252.741 9.7591ZM75.9616 31.0121C74.1861 33.3709 71.5374 34.2081 68.8105 34.2081C63.1499 34.2081 59.1117 30.4501 59.1117 24.9214V9.76072H65.8262V22.8559C65.8262 26.2947 67.6262 28.1875 70.6887 28.1875C73.5703 28.1875 75.9616 26.394 75.9616 22.8071V9.75747H82.6762V33.5663H75.9616V31.0121ZM158.309 9.76072H161.963V2.68452H168.653V9.76072H176.094V15.4621H168.653V25.5339C168.653 27.2004 169.86 28.2119 171.182 28.2119C172.575 28.2119 174.387 27.3747 174.387 27.3747L176.55 32.4749C176.55 32.4749 174.251 34.156 169.115 34.156C165.719 34.156 161.963 31.7012 161.963 26.9332V15.4588H158.309V9.75747V9.76072ZM18.3421 9.10914V24.2324C18.3421 26.8387 17.6253 29.4011 16.2619 31.6605L14.7535 34.156L13.2467 31.6588C11.8882 29.419 11.1683 26.8503 11.1649 24.2308V12.3149C12.947 9.94805 15.6071 9.10914 18.3421 9.10914ZM0 6.41321V0H29.5086V6.41321H0Z" fill="white"/>
</g>
<defs>
<clipPath id="clip0_94_1632">
<rect width="254.118" height="36" fill="white"/>
</clipPath>
</defs>
</svg>
