<svg width="269" height="36" viewBox="0 0 269 36" fill="none" xmlns="http://www.w3.org/2000/svg">
<g clip-path="url(#clip0_94_1634)">
<path fill-rule="evenodd" clip-rule="evenodd" d="M27.2262 2.7085C27.3974 2.71434 27.5516 2.72544 27.6868 2.74235C28.0372 2.78603 27.9839 3.10047 27.905 3.5709C25.9459 15.2522 25.0788 27.8374 31.9827 33.8545C32.0554 33.9213 32.1558 34.0612 32.1218 34.1132C32.0883 34.1652 31.8852 34.1373 31.8018 34.132C28.4032 33.921 14.6973 28.4718 15.2791 5.08832C15.2884 4.71359 15.3384 4.54221 15.8933 4.38038C17.7486 3.83945 23.6134 2.78907 26.5759 2.7085H27.2262ZM5.32362 14.4847C5.64706 14.2564 9.31435 12.4497 12.6858 11.2441C13.3609 11.0292 13.3566 11.7277 13.3889 11.9111C16.539 29.8592 24.2381 32.1178 26.4034 33.8927C26.6946 34.0862 26.3215 34.1583 25.9524 34.1403C10.3852 34.1896 5.69775 19.8731 4.836 15.1795C4.75651 14.7467 5.00018 14.7128 5.32362 14.4847ZM0.34302 25.8699C1.14093 24.8937 3.46278 22.9349 4.42918 22.294C4.72222 22.0998 4.93434 22.5482 5.19333 23.1591C6.23714 25.3973 7.79279 27.7521 9.32227 29.3022C12.3792 32.4 15.7224 33.5827 15.8923 33.721C16.1531 33.9337 16.1507 34.1024 15.6511 34.1209C5.07402 34.5137 0.751287 29.5097 0.0293273 26.6112C-0.0486595 26.2981 0.0200155 26.2649 0.34302 25.8699Z" fill="white"/>
<path d="M56.9244 2.32764L52.2792 20.9995L48.0738 2.32764H40.0547L47.9272 34.0852H55.1151L59.8094 15.4652L64.4547 34.0852H71.6427L79.5641 2.32764H71.6427L67.4864 20.9995L62.89 2.32764H56.9244Z" fill="white"/>
<path d="M91.042 25.9649C90.6019 27.5683 89.3795 28.2925 87.8147 28.2925C85.6144 28.2925 84.2452 26.7925 84.0008 23.9995H98.2301V21.9822C98.2301 15.0514 94.416 10.293 87.6681 10.293C81.3113 10.293 76.6172 15.2584 76.6172 22.4477C76.6172 29.6888 81.0668 34.6026 87.8147 34.6026C93.5358 34.6026 97.3499 31.344 98.1323 25.9649H91.042ZM87.6681 16.6031C89.5751 16.6031 90.6997 18.0513 90.7976 19.9651H84.1474C84.6365 17.7928 85.8588 16.6031 87.6681 16.6031Z" fill="white"/>
<path d="M119.998 34.0852V19.8098C119.998 13.7583 116.429 10.2412 110.17 10.2412C104.498 10.2412 100.732 13.8101 100.097 18.3099H107.334C107.676 17.2754 108.507 16.6031 109.925 16.6031C111.783 16.6031 112.615 17.8962 112.615 19.3961V20.8961C111.735 20.2237 109.583 19.603 107.774 19.603C102.982 19.603 99.3145 22.4995 99.3145 26.9993C99.3145 31.9129 102.982 34.4991 107.334 34.4991C109.681 34.4991 111.881 33.6715 112.615 32.8957V34.0852H119.998ZM112.615 27.5683C112.126 28.4993 110.806 29.1199 109.387 29.1199C107.872 29.1199 106.356 28.4475 106.356 26.8441C106.356 25.2925 107.872 24.62 109.387 24.62C110.806 24.62 112.126 25.2407 112.615 26.2235V27.5683Z" fill="white"/>
<path d="M129.831 0.465332H122.154V34.0849H129.831V17.2751V0.465332Z" fill="white"/>
<path d="M134.716 26.0682C134.716 31.9646 137.649 34.5507 142.833 34.5507C144.544 34.5507 146.207 34.2404 147.086 33.8266V26.9475C146.402 27.2579 145.473 27.4647 144.642 27.4647C143.126 27.4647 142.295 26.6889 142.295 24.8786V17.1203H146.891V10.8101H142.295V4.39648H134.716V10.8101H131.488V17.1203H134.716V26.0682Z" fill="white"/>
<path d="M148.631 34.0849H156.307V20.0164C156.699 18.413 157.97 17.482 159.486 17.482C161.441 17.482 162.37 18.8785 162.37 20.7923V34.0849H169.998V18.8269C169.998 13.6546 167.114 10.2926 162.224 10.2926C159.681 10.2926 157.53 11.3788 156.307 12.827V0.465332H148.631V34.0849Z" fill="white"/>
<path d="M186.629 0.620672C185.7 0.258612 184.526 0 183.059 0C177.68 0 174.503 3.51713 174.503 9.10315V10.81H171.227V17.1202H174.503V34.0851H182.082V17.1202H186.335V10.81H182.082V9.56866C182.082 7.70664 183.108 6.77564 184.819 6.77564C185.505 6.77564 186.09 6.93082 186.629 7.24115V0.620672Z" fill="white"/>
<path d="M202.605 10.7067C202.263 10.4999 201.481 10.293 200.503 10.293C198.303 10.293 196.591 11.3274 195.516 12.8791V10.8102H187.838V34.0853H195.516V20.4306C195.906 18.7754 197.324 17.7928 199.427 17.7928C200.65 17.7928 201.676 17.9996 202.605 18.5168V10.7067Z" fill="white"/>
<path d="M226.245 22.4477C226.245 15.2584 221.288 10.293 214.589 10.293C207.939 10.293 203.342 15.2584 203.342 22.4477C203.342 29.6372 208.347 34.6026 214.997 34.6026C221.696 34.6026 226.245 29.6372 226.245 22.4477ZM218.305 22.4477C218.305 25.6545 216.984 27.8786 214.589 27.8786C212.242 27.8786 210.921 25.6545 210.921 22.4477C210.921 19.2409 212.242 16.9652 214.589 16.9652C216.984 16.9652 218.305 19.2409 218.305 22.4477Z" fill="white"/>
<path d="M227.9 34.0853H235.578V20.0167C235.969 18.4134 237.24 17.4823 238.756 17.4823C240.712 17.4823 241.641 18.8789 241.641 20.7927V34.0853H249.269V18.8272C249.269 13.6549 246.384 10.293 241.495 10.293C238.951 10.293 236.799 11.3791 235.578 12.8274V10.8102H227.9V34.0853Z" fill="white"/>
<path d="M253.351 26.0682C253.351 31.9646 256.285 34.5507 261.467 34.5507C263.179 34.5507 264.842 34.2404 265.722 33.8266V26.9475C265.037 27.2579 264.108 27.4647 263.277 27.4647C261.761 27.4647 260.93 26.6889 260.93 24.8786V17.1203H265.527V10.8101H260.93V4.39648H253.351V10.8101H250.123V17.1203H253.351V26.0682Z" fill="white"/>
</g>
<defs>
<clipPath id="clip0_94_1634">
<rect width="268.615" height="36" fill="white"/>
</clipPath>
</defs>
</svg>
